<svg width="57" height="27" viewBox="0 0 57 27" fill="none" xmlns="http://www.w3.org/2000/svg">
<path d="M15 13.6667C15 12.3407 14.4732 11.0689 13.5355 10.1312C12.5979 9.19353 11.3261 8.66675 10 8.66675C8.67392 8.66675 7.40215 9.19353 6.46447 10.1312C5.52678 11.0689 5 12.3407 5 13.6667C5 19.5001 2.5 21.1667 2.5 21.1667H17.5C17.5 21.1667 15 19.5001 15 13.6667Z" stroke="white" stroke-width="2" stroke-linecap="round" stroke-linejoin="round"/>
<path d="M11.4417 24.5C11.2952 24.7526 11.0849 24.9622 10.8319 25.1079C10.5789 25.2537 10.292 25.3304 10 25.3304C9.70803 25.3304 9.42117 25.2537 9.16816 25.1079C8.91515 24.9622 8.70486 24.7526 8.55835 24.5" stroke="white" stroke-width="2" stroke-linecap="round" stroke-linejoin="round"/>
<circle cx="15" cy="4" r="4" fill="#FF7B7B"/>
<g clip-path="url(#clip0_1_72)">
<path d="M47 18.5C48.3807 18.5 49.5 17.3807 49.5 16C49.5 14.6193 48.3807 13.5 47 13.5C45.6193 13.5 44.5 14.6193 44.5 16C44.5 17.3807 45.6193 18.5 47 18.5Z" stroke="white" stroke-width="2" stroke-linecap="round" stroke-linejoin="round"/>
<path d="M53.1666 18.4999C53.0557 18.7513 53.0226 19.0301 53.0716 19.3004C53.1206 19.5707 53.2495 19.8202 53.4416 20.0166L53.4916 20.0666C53.6465 20.2214 53.7695 20.4052 53.8533 20.6075C53.9372 20.8098 53.9804 21.0267 53.9804 21.2458C53.9804 21.4648 53.9372 21.6817 53.8533 21.884C53.7695 22.0863 53.6465 22.2701 53.4916 22.4249C53.3368 22.5799 53.153 22.7028 52.9507 22.7867C52.7483 22.8706 52.5314 22.9137 52.3124 22.9137C52.0934 22.9137 51.8765 22.8706 51.6742 22.7867C51.4719 22.7028 51.288 22.5799 51.1332 22.4249L51.0833 22.3749C50.8869 22.1828 50.6374 22.0539 50.3671 22.0049C50.0967 21.9559 49.8179 21.989 49.5666 22.0999C49.3201 22.2056 49.1099 22.381 48.9618 22.6045C48.8138 22.8281 48.7343 23.0901 48.7333 23.3583V23.4999C48.7333 23.9419 48.5577 24.3659 48.2451 24.6784C47.9325 24.991 47.5086 25.1666 47.0666 25.1666C46.6246 25.1666 46.2006 24.991 45.8881 24.6784C45.5755 24.3659 45.3999 23.9419 45.3999 23.4999V23.4249C45.3935 23.1491 45.3042 22.8816 45.1437 22.6572C44.9832 22.4328 44.7589 22.2618 44.4999 22.1666C44.2486 22.0557 43.9698 22.0226 43.6994 22.0716C43.4291 22.1206 43.1797 22.2495 42.9833 22.4416L42.9333 22.4916C42.7785 22.6465 42.5946 22.7695 42.3923 22.8533C42.19 22.9372 41.9731 22.9804 41.7541 22.9804C41.5351 22.9804 41.3182 22.9372 41.1159 22.8533C40.9135 22.7695 40.7297 22.6465 40.5749 22.4916C40.42 22.3368 40.297 22.153 40.2132 21.9507C40.1293 21.7483 40.0861 21.5314 40.0861 21.3124C40.0861 21.0934 40.1293 20.8765 40.2132 20.6742C40.297 20.4719 40.42 20.288 40.5749 20.1332L40.6249 20.0833C40.817 19.8869 40.9459 19.6374 40.9949 19.3671C41.0439 19.0967 41.0108 18.8179 40.8999 18.5666C40.7943 18.3201 40.6189 18.1099 40.3953 17.9618C40.1717 17.8138 39.9097 17.7343 39.6416 17.7333H39.4999C39.0579 17.7333 38.634 17.5577 38.3214 17.2451C38.0088 16.9325 37.8333 16.5086 37.8333 16.0666C37.8333 15.6246 38.0088 15.2006 38.3214 14.8881C38.634 14.5755 39.0579 14.3999 39.4999 14.3999H39.5749C39.8507 14.3935 40.1183 14.3042 40.3427 14.1437C40.5671 13.9832 40.738 13.7589 40.8333 13.4999C40.9442 13.2486 40.9773 12.9698 40.9283 12.6994C40.8792 12.4291 40.7504 12.1797 40.5583 11.9833L40.5083 11.9333C40.3533 11.7785 40.2304 11.5946 40.1465 11.3923C40.0626 11.19 40.0194 10.9731 40.0194 10.7541C40.0194 10.5351 40.0626 10.3182 40.1465 10.1159C40.2304 9.91352 40.3533 9.72971 40.5083 9.57492C40.663 9.41996 40.8469 9.29703 41.0492 9.21315C41.2515 9.12928 41.4684 9.08611 41.6874 9.08611C41.9064 9.08611 42.1233 9.12928 42.3257 9.21315C42.528 9.29703 42.7118 9.41996 42.8666 9.57492L42.9166 9.62492C43.113 9.81703 43.3624 9.94591 43.6328 9.99492C43.9031 10.0439 44.1819 10.0108 44.4333 9.89992H44.4999C44.7464 9.79428 44.9566 9.61888 45.1047 9.39531C45.2527 9.17173 45.3322 8.90974 45.3333 8.64159V8.49992C45.3333 8.05789 45.5088 7.63397 45.8214 7.32141C46.134 7.00885 46.5579 6.83325 46.9999 6.83325C47.4419 6.83325 47.8659 7.00885 48.1784 7.32141C48.491 7.63397 48.6666 8.05789 48.6666 8.49992V8.57492C48.6677 8.84307 48.7471 9.10506 48.8952 9.32864C49.0432 9.55221 49.2534 9.72762 49.4999 9.83325C49.7513 9.94418 50.0301 9.97727 50.3004 9.92826C50.5707 9.87924 50.8202 9.75037 51.0166 9.55825L51.0666 9.50825C51.2214 9.35329 51.4052 9.23036 51.6075 9.14649C51.8098 9.06261 52.0267 9.01944 52.2458 9.01944C52.4648 9.01944 52.6817 9.06261 52.884 9.14649C53.0863 9.23036 53.2701 9.35329 53.4249 9.50825C53.5799 9.66304 53.7028 9.84685 53.7867 10.0492C53.8706 10.2515 53.9137 10.4684 53.9137 10.6874C53.9137 10.9064 53.8706 11.1233 53.7867 11.3257C53.7028 11.528 53.5799 11.7118 53.4249 11.8666L53.3749 11.9166C53.1828 12.113 53.0539 12.3624 53.0049 12.6328C52.9559 12.9031 52.989 13.1819 53.0999 13.4333V13.4999C53.2056 13.7464 53.381 13.9566 53.6045 14.1047C53.8281 14.2527 54.0901 14.3322 54.3583 14.3333H54.4999C54.9419 14.3333 55.3659 14.5088 55.6784 14.8214C55.991 15.134 56.1666 15.5579 56.1666 15.9999C56.1666 16.4419 55.991 16.8659 55.6784 17.1784C55.3659 17.491 54.9419 17.6666 54.4999 17.6666H54.4249C54.1568 17.6677 53.8948 17.7471 53.6712 17.8952C53.4476 18.0432 53.2722 18.2534 53.1666 18.4999Z" stroke="white" stroke-width="2" stroke-linecap="round" stroke-linejoin="round"/>
</g>
<defs>
<clipPath id="clip0_1_72">
<rect width="20" height="20" fill="white" transform="translate(37 6)"/>
</clipPath>
</defs>
</svg>
