<svg width="31" height="23" viewBox="0 0 31 23" fill="none" xmlns="http://www.w3.org/2000/svg">
<path d="M30.9326 5.18534L27.3272 15.9059C27.0576 16.6694 26.35 17.1784 25.5076 17.1784H11.5913C10.7826 17.1784 10.0076 16.7012 9.73804 16.0014L4.41413 2.54495H1.34783C0.606522 2.54495 0 1.97234 0 1.27248C0 0.572614 0.606522 0 1.34783 0H5.35761C5.93043 0 6.43587 0.349931 6.63804 0.858921L12.1304 14.6335H24.9348L27.7989 6.04426H11.9283C11.187 6.04426 10.5804 5.47165 10.5804 4.77178C10.5804 4.07192 11.187 3.49931 11.9283 3.49931H29.6522C30.0902 3.49931 30.4946 3.72199 30.7304 4.04011C31 4.35823 31.0674 4.8036 30.9326 5.18534ZM12.2652 18.8645C11.6924 18.8645 11.1196 19.0871 10.7152 19.4689C10.3109 19.8506 10.075 20.3914 10.075 20.9322C10.075 21.473 10.3109 22.0138 10.7152 22.3956C11.1196 22.7773 11.6924 23 12.2652 23C12.838 23 13.4109 22.7773 13.8152 22.3956C14.2196 22.0138 14.4554 21.473 14.4554 20.9322C14.4554 20.3914 14.2196 19.8506 13.8152 19.4689C13.4109 19.0871 12.838 18.8645 12.2652 18.8645ZM24.362 18.8645C23.7891 18.8645 23.2163 19.0871 22.812 19.4689C22.4076 19.8506 22.1717 20.3914 22.1717 20.9322C22.1717 21.473 22.4076 22.0138 22.812 22.3956C23.2163 22.7773 23.7891 23 24.362 23C24.9348 23 25.5076 22.7773 25.912 22.3956C26.3163 22.0138 26.5522 21.473 26.5522 20.9322C26.5522 20.3914 26.3163 19.8506 25.912 19.4689C25.5076 19.0871 24.9348 18.8645 24.362 18.8645Z" fill="#11AB2F"/>
</svg>
